<svg aria-hidden="true" focusable="false" width="60" height="56" xmlns="http://www.w3.org/2000/svg"><defs><linearGradient x1="100%" y1="18.69%" x2="0%" y2="81.31%" id="icon-money"><stop stop-color="#2993D1" offset="0%"/><stop stop-color="#4DD2B8" offset="100%"/></linearGradient></defs><g fill-rule="nonzero" fill="none"><path d="M54.224 28.817h4.509v14.111H45.95a4.968 4.968 0 0 1-4.969-4.968v-4.174a4.968 4.968 0 0 1 4.97-4.969h8.273z" fill="#00ACEA"/><path d="M40.397 18.022h13.827v10.807H45.95a4.968 4.968 0 0 0-4.969 4.969v4.174a4.968 4.968 0 0 0 4.97 4.97h8.335v11.18H7.453a6.214 6.214 0 0 1-6.21-6.212V12.146h.012a6.205 6.205 0 0 0 6.198 5.876h32.944z" fill="url(#icon-money)"/><path d="M47.926 17.96v.062h-7.529L27.975 5.537H44.82a3.107 3.107 0 0 1 3.106 3.106v9.317z" fill="#00ACEA"/><path d="M27.975 5.525L40.397 18.01H9.106v-.05l9.23-12.423 2.41-3.242a2.48 2.48 0 0 1 3.75-.273l3.48 3.503z" fill="#FFF"/><path d="M18.323 5.537L9.093 17.96v.05h-1.64a6.205 6.205 0 0 1-6.198-5.876 2.98 2.98 0 0 1-.013-.336v-.062a6.214 6.214 0 0 1 6.211-6.211H18.31l.013.012z" fill="#00ACEA"/><path d="M58.733 27.575h-3.267V18.01a1.246 1.246 0 0 0-1.242-1.243h-5.056V8.631a4.352 4.352 0 0 0-4.348-4.348H28.485l-3.119-3.13a3.72 3.72 0 0 0-5.627.397l-2.025 2.733H7.454A7.46 7.46 0 0 0 0 11.736v36.15a7.46 7.46 0 0 0 7.453 7.453h46.833a1.246 1.246 0 0 0 1.242-1.243v-9.925h3.205a1.246 1.246 0 0 0 1.242-1.243V28.817a1.24 1.24 0 0 0-1.242-1.242zM44.82 6.767a1.859 1.859 0 0 1 1.863 1.864v8.136H40.92l-9.95-10H44.82zM21.727 3.041a1.243 1.243 0 0 1 1.875-.137l13.802 13.863H11.54L21.727 3.041zM2.484 11.736a4.967 4.967 0 0 1 4.97-4.969h8.422l-7.429 10h-.994a4.954 4.954 0 0 1-4.956-4.695v-.013c0-.074-.013-.15-.013-.26v-.063zm50.56 41.118H7.453a4.968 4.968 0 0 1-4.97-4.969V17.364a7.443 7.443 0 0 0 4.97 1.9h32.67a1.416 1.416 0 0 0 .646 0h12.224v8.323h-7.031a6.214 6.214 0 0 0-6.211 6.211v4.174a6.214 6.214 0 0 0 6.21 6.211h7.094v8.671h-.013zm4.447-11.168H45.95a3.738 3.738 0 0 1-3.728-3.726v-4.174a3.738 3.738 0 0 1 3.727-3.727h7.888c.25.083.52.083.77 0h2.883v11.627z" fill="#005580"/><path d="M47.192 32.544a1.246 1.246 0 0 0-1.242 1.242v4.174a1.242 1.242 0 0 0 2.485 0v-4.174a1.236 1.236 0 0 0-1.243-1.242z" fill="#FFF"/></g></svg>
