<svg aria-hidden="true" focusable="false" width="52" height="60" xmlns="http://www.w3.org/2000/svg"><defs><linearGradient x1="91.949%" y1="0%" x2="8.051%" y2="100%" id="icon-interface"><stop stop-color="#2993D1" offset="0%"/><stop stop-color="#4DD2B8" offset="100%"/></linearGradient></defs><g fill-rule="nonzero" fill="none"><path d="M40.7 5.62h3.742a5.44 5.44 0 0 1 5.442 5.441v42.054a5.44 5.44 0 0 1-5.442 5.443H6.837a5.44 5.44 0 0 1-5.442-5.443V11.061A5.44 5.44 0 0 1 6.837 5.62H40.7z" fill="url(#icon-interface)"/><path d="M44.442 4.259h-2.381V1.36a1.36 1.36 0 1 0-2.721 0v2.91H11.87v-2.91a1.36 1.36 0 1 0-2.72 0v2.91H6.837a6.806 6.806 0 0 0-6.803 6.804v42.054a6.806 6.806 0 0 0 6.803 6.803h37.592a6.806 6.806 0 0 0 6.802-6.803V11.061a6.803 6.803 0 0 0-6.789-6.802zm4.082 48.856a4.093 4.093 0 0 1-4.082 4.082H6.837a4.093 4.093 0 0 1-4.082-4.082V11.061A4.093 4.093 0 0 1 6.837 6.98H9.15v2.109a1.36 1.36 0 1 0 2.72 0v-2.11h27.47v2.11a1.36 1.36 0 0 0 2.721 0v-2.11h2.381a4.093 4.093 0 0 1 4.082 4.082v42.054z" fill="#005580"/><path d="M17.327 28.844l-5.007 4.789-2.313-2.313a1.357 1.357 0 1 0-1.919 1.918l3.252 3.252c.255.257.604.4.966.395.351.003.69-.134.94-.381l5.972-5.715a1.354 1.354 0 0 0 .04-1.918 1.384 1.384 0 0 0-1.931-.027zM42.225 31.32H26.578a1.36 1.36 0 1 0 0 2.72h15.647a1.36 1.36 0 0 0 0-2.72zM17.327 15.238l-5.007 4.79-2.313-2.314a1.357 1.357 0 1 0-1.919 1.919l3.252 3.251c.255.257.604.4.966.395.351.003.69-.134.94-.38l5.972-5.715a1.354 1.354 0 0 0 .04-1.919 1.384 1.384 0 0 0-1.931-.027zM42.225 17.714H26.578a1.36 1.36 0 1 0 0 2.721h15.647a1.36 1.36 0 0 0 0-2.72z" fill="#FFF"/><path d="M42.225 44.925H26.578a1.36 1.36 0 1 0 0 2.721h15.647a1.36 1.36 0 0 0 0-2.72z" fill="#005580"/></g></svg>
