<svg aria-hidden="true" focusable="false" width="52" height="60" xmlns="http://www.w3.org/2000/svg"><defs><linearGradient x1="93.667%" y1="0%" x2="6.333%" y2="100%" id="icon-shopping"><stop stop-color="#2993D1" offset="0%"/><stop stop-color="#4DD2B8" offset="100%"/></linearGradient></defs><g fill-rule="nonzero" fill="none"><path d="M15.66 58.57H6.762a5.392 5.392 0 0 1-5.394-5.393V16.153l1.659.997a5.416 5.416 0 0 0 5.595 0l1.659-.997v37.024a5.372 5.372 0 0 0 5.38 5.394z" fill="#00ACEA"/><path d="M20.636 16.153h29.272v37.024a5.392 5.392 0 0 1-5.394 5.394H15.66a5.392 5.392 0 0 1-5.393-5.394V16.153h10.37z" fill="url(#icon-shopping)"/><path d="M34.604 33.452l-5.528 5.528-2.683-2.71a1.345 1.345 0 0 0-1.914 1.887l3.64 3.668c.252.257.597.403.957.404.358-.003.7-.143.958-.39l6.485-6.486a1.342 1.342 0 0 0 0-1.901 1.359 1.359 0 0 0-1.915 0z" fill="#FFF"/><path d="M49.908 14.805H41.67V11.19C41.672 5.009 36.66-.003 30.479 0c-1.143 0-2.28.173-3.371.512A11.342 11.342 0 0 0 23.738 0c-6.17.008-11.17 5.008-11.179 11.177v3.614h-2.453a.588.588 0 0 0-.068.014c-.027 0-.04.013-.067.013-.027 0-.04.013-.068.013-.027 0-.04.014-.067.014a.1.1 0 0 0-.054.027c-.027.013-.054.013-.067.027-.014.014-.027.014-.055.027a.302.302 0 0 0-.067.04c-.013 0-.013.014-.027.014l-1.658.998a4.04 4.04 0 0 1-4.193 0l-1.645-.985A1.346 1.346 0 0 0 .02 16.14v37.025a6.744 6.744 0 0 0 6.742 6.742h37.752a6.744 6.744 0 0 0 6.742-6.742V16.153a1.352 1.352 0 0 0-1.348-1.348zM38.973 11.19v3.614h-4.045V11.19c.01-2.97-1.17-5.82-3.276-7.914a7.932 7.932 0 0 0-.607-.554c4.456.303 7.92 4.001 7.928 8.468zm-16.975 3.614V11.19a8.52 8.52 0 0 1 5.123-7.793 8.504 8.504 0 0 1 2.63 1.793 8.423 8.423 0 0 1 2.48 6v3.614H21.999zm-6.742-3.614a8.493 8.493 0 0 1 7.928-8.468 11.178 11.178 0 0 0-3.883 8.468v3.614h-4.045V11.19zM2.716 53.177V18.526a6.72 6.72 0 0 0 6.203 0v34.651a6.724 6.724 0 0 0 1.348 4.045H6.762a4.057 4.057 0 0 1-4.045-4.045zm45.843 0a4.056 4.056 0 0 1-4.045 4.045H15.66a4.057 4.057 0 0 1-4.044-4.045V17.501h2.063c.075.012.152.016.229.013.08 0 .148-.013.23-.013H19.3v9.586a1.349 1.349 0 0 0 2.697 0v-9.586H33.35c.076.012.152.016.229.013.08 0 .148-.013.229-.013h5.164v9.586a1.348 1.348 0 1 0 2.697 0v-9.586h6.89v35.676z" fill="#005580"/></g></svg>
